<?xml version="1.0" encoding="UTF-8"?>
<svg xmlns="http://www.w3.org/2000/svg" width="811" height="1192" viewBox="0 0 811 1192">
  <title>BasisREMY mouse chef icon</title>
  <path d="M 348 854 L 343 859 L 340 864 L 334 878 L 328 896 L 326 906 L 322 916 L 318 933 L 316 936 L 308 963 L 303 973 L 304 975 L 309 977 L 315 983 L 319 990 L 320 1006 L 318 1011 L 318 1015 L 322 1024 L 322 1038 L 318 1048 L 310 1057 L 306 1072 L 299 1084 L 284 1101 L 306 1110 L 343 1121 L 347 1121 L 363 1125 L 368 1125 L 369 1126 L 374 1126 L 375 1127 L 382 1127 L 390 1129 L 401 1129 L 402 1130 L 464 1130 L 465 1129 L 475 1129 L 476 1128 L 499 1126 L 500 1125 L 519 1122 L 524 1120 L 528 1120 L 544 1116 L 566 1109 L 585 1101 L 571 1081 L 567 1072 L 566 1066 L 560 1060 L 554 1049 L 553 1045 L 553 1030 L 556 1022 L 552 1014 L 552 999 L 553 995 L 544 988 L 537 978 L 537 976 L 532 967 L 525 946 L 520 936 L 515 930 L 511 928 L 506 928 L 502 930 L 497 936 L 491 948 L 485 963 L 482 974 L 480 977 L 480 980 L 467 1020 L 458 1040 L 451 1050 L 448 1053 L 439 1058 L 430 1059 L 422 1056 L 414 1049 L 406 1036 L 400 1019 L 398 1007 L 396 1003 L 396 999 L 393 990 L 392 980 L 391 979 L 391 975 L 390 974 L 390 970 L 384 944 L 384 939 L 383 938 L 378 909 L 376 904 L 374 891 L 367 869 L 363 860 L 358 854 L 356 853 Z M 476 779 L 473 782 L 479 792 L 479 797 L 476 800 L 470 800 L 462 796 L 456 795 L 457 802 L 463 816 L 473 830 L 490 844 L 506 851 L 515 852 L 518 848 L 518 834 L 515 821 L 508 805 L 503 797 L 491 785 L 480 779 Z M 443 738 L 432 741 L 423 748 L 419 756 L 419 768 L 422 775 L 432 784 L 442 787 L 448 787 L 456 785 L 463 780 L 467 775 L 470 766 L 470 756 L 467 749 L 461 743 L 453 739 Z M 733 918 L 730 908 L 729 899 L 718 867 L 701 832 L 688 812 L 667 786 L 647 766 L 624 747 L 600 731 L 598 731 L 592 740 L 580 752 L 564 763 L 545 772 L 518 780 L 513 780 L 510 782 L 518 792 L 527 809 L 531 821 L 533 837 L 534 838 L 533 854 L 531 860 L 524 868 L 521 869 L 505 868 L 491 863 L 477 855 L 455 833 L 445 815 L 443 808 L 441 809 L 434 822 L 426 831 L 418 837 L 408 841 L 406 839 L 406 837 L 417 826 L 422 819 L 430 800 L 430 796 L 420 790 L 415 784 L 413 779 L 411 779 L 407 783 L 389 794 L 379 798 L 373 798 L 371 796 L 377 784 L 354 783 L 353 782 L 340 781 L 339 780 L 318 776 L 296 768 L 274 756 L 254 738 L 234 751 L 211 770 L 195 786 L 183 800 L 165 826 L 149 857 L 139 883 L 139 886 L 133 905 L 132 915 L 130 921 L 128 954 L 129 955 L 129 968 L 130 969 L 131 980 L 139 1007 L 147 1023 L 150 1026 L 153 1032 L 172 1054 L 190 1068 L 202 1075 L 218 1082 L 236 1087 L 256 1087 L 257 1086 L 261 1086 L 273 1082 L 281 1077 L 286 1072 L 290 1064 L 289 1063 L 275 1064 L 274 1063 L 265 1062 L 258 1059 L 256 1057 L 256 1054 L 261 1052 L 280 1052 L 293 1049 L 300 1045 L 305 1038 L 305 1030 L 303 1027 L 299 1025 L 271 1026 L 263 1024 L 258 1020 L 261 1017 L 264 1016 L 284 1015 L 285 1014 L 290 1014 L 297 1011 L 303 1005 L 303 997 L 298 991 L 292 988 L 281 987 L 280 986 L 269 986 L 268 985 L 252 984 L 244 981 L 241 981 L 230 975 L 235 971 L 245 968 L 252 968 L 252 966 L 243 954 L 228 945 L 225 945 L 221 943 L 204 943 L 193 946 L 192 945 L 192 943 L 200 935 L 209 930 L 219 929 L 220 928 L 232 931 L 233 930 L 234 914 L 241 888 L 250 869 L 256 860 L 261 855 L 262 857 L 258 868 L 258 872 L 254 886 L 253 899 L 252 900 L 252 908 L 251 909 L 251 939 L 261 948 L 269 960 L 272 967 L 286 969 L 290 961 L 302 925 L 304 915 L 318 872 L 326 855 L 332 846 L 343 836 L 352 833 L 364 836 L 374 845 L 382 860 L 387 875 L 389 886 L 391 890 L 391 894 L 394 903 L 394 907 L 398 922 L 399 931 L 401 936 L 403 950 L 405 955 L 409 980 L 420 1023 L 425 1032 L 430 1037 L 437 1037 L 442 1033 L 448 1022 L 467 963 L 469 960 L 469 957 L 482 928 L 494 914 L 501 910 L 505 909 L 515 909 L 522 912 L 533 923 L 543 943 L 547 956 L 555 974 L 563 981 L 567 982 L 569 980 L 578 976 L 582 976 L 588 974 L 595 974 L 604 955 L 615 943 L 614 907 L 613 906 L 613 898 L 611 891 L 611 885 L 604 855 L 606 854 L 614 865 L 623 884 L 628 899 L 628 903 L 631 914 L 632 930 L 634 931 L 643 928 L 649 928 L 650 929 L 658 930 L 664 933 L 673 942 L 672 945 L 665 943 L 649 943 L 641 945 L 633 949 L 622 958 L 616 966 L 614 971 L 626 971 L 627 972 L 635 973 L 638 975 L 635 979 L 618 987 L 577 994 L 569 1002 L 569 1009 L 576 1016 L 583 1018 L 614 1018 L 617 1020 L 617 1022 L 614 1025 L 607 1028 L 603 1028 L 597 1030 L 577 1030 L 570 1035 L 570 1043 L 574 1049 L 585 1055 L 589 1055 L 590 1056 L 618 1056 L 620 1059 L 617 1062 L 611 1065 L 598 1068 L 590 1068 L 589 1067 L 585 1068 L 585 1070 L 587 1074 L 593 1080 L 603 1085 L 610 1087 L 618 1087 L 619 1088 L 622 1087 L 623 1088 L 624 1087 L 637 1086 L 644 1083 L 647 1083 L 669 1073 L 693 1055 L 706 1041 L 715 1028 L 725 1008 L 730 993 L 730 989 L 734 975 L 735 935 L 734 934 Z M 582 705 L 580 704 L 561 716 L 537 727 L 517 734 L 491 740 L 486 745 L 484 750 L 484 756 L 486 761 L 493 765 L 514 764 L 519 762 L 527 761 L 530 759 L 543 755 L 557 748 L 568 741 L 575 735 L 583 725 L 585 719 L 585 714 Z M 266 716 L 267 725 L 270 730 L 275 735 L 295 748 L 318 758 L 347 766 L 363 767 L 364 768 L 383 768 L 384 767 L 389 767 L 400 763 L 403 759 L 403 751 L 397 745 L 392 745 L 391 744 L 386 744 L 385 743 L 361 739 L 345 734 L 342 734 L 335 731 L 332 731 L 326 728 L 323 728 L 306 720 L 304 720 L 276 704 L 273 704 L 269 708 Z M 349 506 L 345 510 L 343 514 L 343 521 L 347 528 L 351 530 L 357 530 L 361 527 L 363 523 L 363 514 L 362 511 L 356 506 Z M 540 501 L 537 503 L 535 507 L 535 517 L 538 522 L 541 524 L 548 524 L 554 518 L 554 508 L 550 502 L 546 500 Z M 728 271 L 711 253 L 704 248 L 690 241 L 681 238 L 665 236 L 664 235 L 650 235 L 649 236 L 635 237 L 616 243 L 600 251 L 592 256 L 576 269 L 554 294 L 541 315 L 537 324 L 535 326 L 531 337 L 529 339 L 501 328 L 485 324 L 481 324 L 476 322 L 464 321 L 463 320 L 455 320 L 454 319 L 440 319 L 439 318 L 414 319 L 413 320 L 389 322 L 384 324 L 380 324 L 375 326 L 370 326 L 366 328 L 359 329 L 330 339 L 313 347 L 311 349 L 290 360 L 288 358 L 288 356 L 277 335 L 263 315 L 245 296 L 232 286 L 212 275 L 196 270 L 186 269 L 185 268 L 161 268 L 160 269 L 154 269 L 142 272 L 132 276 L 111 288 L 92 306 L 77 327 L 66 352 L 61 372 L 61 380 L 60 381 L 60 409 L 61 410 L 63 426 L 69 445 L 78 463 L 94 484 L 102 492 L 110 498 L 131 510 L 151 517 L 159 518 L 160 519 L 166 519 L 167 520 L 192 520 L 193 519 L 194 496 L 195 495 L 197 478 L 207 444 L 224 411 L 236 396 L 236 393 L 223 363 L 211 345 L 201 335 L 186 326 L 172 322 L 153 322 L 145 324 L 142 326 L 139 326 L 129 331 L 122 336 L 109 349 L 102 359 L 100 357 L 103 347 L 113 330 L 126 317 L 145 307 L 156 304 L 174 304 L 189 308 L 206 317 L 223 332 L 235 348 L 246 369 L 253 388 L 255 398 L 249 405 L 236 425 L 228 441 L 218 469 L 212 495 L 212 500 L 210 507 L 210 515 L 209 516 L 209 524 L 208 525 L 208 566 L 209 567 L 209 577 L 205 579 L 201 579 L 179 586 L 165 594 L 161 598 L 161 601 L 165 601 L 190 592 L 202 590 L 207 588 L 220 587 L 221 586 L 252 586 L 253 587 L 260 587 L 274 591 L 278 595 L 277 596 L 246 595 L 245 596 L 236 596 L 235 597 L 229 597 L 228 598 L 214 600 L 214 604 L 217 613 L 222 622 L 220 624 L 211 627 L 190 638 L 178 648 L 178 651 L 183 651 L 197 644 L 199 642 L 231 630 L 252 625 L 258 625 L 259 624 L 276 624 L 277 625 L 275 627 L 248 635 L 233 641 L 232 643 L 243 657 L 262 675 L 286 691 L 312 704 L 351 718 L 377 724 L 396 726 L 397 727 L 408 727 L 409 728 L 450 728 L 451 727 L 471 726 L 472 725 L 499 721 L 534 710 L 570 693 L 592 677 L 607 661 L 619 644 L 626 630 L 631 616 L 607 610 L 597 609 L 596 607 L 598 605 L 616 604 L 617 603 L 620 604 L 632 604 L 633 605 L 639 605 L 640 606 L 655 608 L 688 617 L 690 615 L 688 612 L 680 607 L 678 607 L 668 602 L 654 598 L 638 596 L 636 594 L 637 573 L 615 574 L 614 575 L 606 575 L 598 577 L 595 576 L 597 573 L 603 570 L 624 564 L 638 563 L 639 562 L 649 562 L 650 561 L 671 561 L 672 562 L 693 563 L 695 561 L 691 557 L 678 553 L 662 552 L 661 551 L 636 552 L 634 550 L 631 533 L 621 509 L 622 508 L 621 474 L 620 473 L 618 458 L 615 446 L 612 440 L 612 437 L 610 434 L 607 424 L 596 403 L 586 389 L 565 368 L 565 366 L 573 344 L 582 326 L 591 312 L 603 298 L 622 283 L 634 277 L 640 276 L 644 274 L 648 274 L 649 273 L 667 273 L 679 276 L 693 284 L 700 291 L 707 302 L 706 305 L 691 295 L 678 290 L 672 290 L 671 289 L 651 290 L 631 298 L 619 307 L 611 315 L 601 328 L 593 342 L 593 344 L 591 346 L 591 348 L 585 360 L 585 364 L 602 382 L 613 398 L 626 424 L 632 442 L 632 446 L 635 456 L 636 470 L 637 471 L 638 494 L 645 494 L 653 491 L 656 491 L 675 483 L 688 475 L 702 464 L 719 445 L 727 433 L 737 413 L 745 389 L 748 369 L 749 368 L 749 361 L 750 360 L 750 338 L 749 337 L 748 322 L 747 321 L 745 308 L 740 293 L 735 282 Z M 522 638 L 522 643 L 520 646 L 510 655 L 499 661 L 485 666 L 481 666 L 475 668 L 461 669 L 460 670 L 445 670 L 444 669 L 436 669 L 435 668 L 429 668 L 428 667 L 420 666 L 411 663 L 399 657 L 389 650 L 380 641 L 378 637 L 378 633 L 382 628 L 387 627 L 397 636 L 414 646 L 436 652 L 452 652 L 456 646 L 460 631 L 461 607 L 448 602 L 439 594 L 434 586 L 434 576 L 441 568 L 449 564 L 459 563 L 460 562 L 478 562 L 489 565 L 495 569 L 498 574 L 498 584 L 493 593 L 483 602 L 473 606 L 470 637 L 466 651 L 467 652 L 474 652 L 493 647 L 501 643 L 515 633 L 519 634 Z M 340 484 L 354 485 L 363 490 L 370 497 L 374 503 L 378 512 L 379 523 L 380 524 L 379 542 L 374 556 L 370 562 L 361 570 L 355 573 L 347 575 L 335 574 L 324 569 L 316 561 L 312 555 L 307 539 L 307 524 L 312 507 L 317 499 L 326 490 L 333 486 Z M 533 481 L 545 481 L 557 487 L 564 495 L 569 504 L 573 521 L 572 537 L 566 553 L 557 563 L 550 567 L 542 569 L 531 568 L 525 566 L 514 557 L 507 545 L 503 528 L 505 511 L 511 497 L 521 486 Z M 359 412 L 360 416 L 358 420 L 355 422 L 346 422 L 345 421 L 336 422 L 323 427 L 316 432 L 307 441 L 305 442 L 302 439 L 303 433 L 310 422 L 321 412 L 329 408 L 336 406 L 350 406 L 355 408 Z M 505 410 L 512 402 L 518 399 L 525 397 L 534 397 L 542 399 L 550 403 L 556 408 L 562 417 L 562 421 L 558 424 L 544 415 L 537 413 L 531 413 L 530 412 L 522 413 L 512 417 L 508 417 L 505 413 Z M 213 139 L 208 149 L 206 157 L 206 161 L 205 162 L 205 178 L 206 179 L 207 189 L 211 200 L 214 204 L 214 206 L 221 216 L 235 229 L 249 237 L 265 242 L 270 242 L 271 243 L 296 243 L 297 242 L 307 241 L 325 235 L 342 226 L 355 216 L 372 197 L 395 206 L 408 209 L 414 209 L 415 210 L 437 210 L 438 209 L 443 209 L 456 206 L 459 204 L 462 204 L 473 199 L 477 196 L 480 197 L 478 201 L 468 212 L 456 220 L 445 225 L 429 229 L 403 229 L 402 228 L 397 228 L 389 226 L 380 222 L 376 222 L 361 236 L 349 244 L 339 249 L 322 255 L 306 258 L 301 260 L 295 260 L 294 261 L 294 267 L 295 268 L 297 288 L 299 295 L 299 302 L 300 303 L 301 315 L 302 316 L 303 332 L 305 332 L 318 325 L 320 325 L 335 318 L 347 315 L 354 312 L 357 312 L 364 309 L 368 309 L 383 305 L 400 303 L 401 302 L 409 302 L 410 301 L 453 300 L 454 301 L 476 303 L 503 310 L 507 310 L 507 297 L 506 296 L 506 288 L 505 287 L 505 276 L 503 268 L 503 260 L 502 259 L 502 251 L 501 250 L 499 228 L 511 222 L 513 222 L 521 217 L 538 200 L 544 191 L 550 178 L 553 167 L 554 154 L 555 153 L 553 131 L 545 112 L 540 105 L 532 97 L 520 89 L 513 86 L 501 83 L 480 83 L 479 84 L 471 85 L 459 90 L 451 95 L 445 101 L 433 84 L 417 71 L 401 64 L 388 61 L 378 61 L 377 60 L 361 61 L 360 62 L 355 62 L 347 64 L 327 73 L 315 82 L 307 90 L 299 101 L 294 111 L 294 113 L 291 117 L 273 112 L 249 113 L 240 116 L 229 122 L 218 132 Z" fill="#D71920" fill-rule="evenodd"/>
</svg>
